<svg xmlns="http://www.w3.org/2000/svg" width="32" height="32"><g fill="none" fill-rule="evenodd"><circle fill="#E4EEF3" cx="16" cy="16" r="16"/><path d="M22.866 12.247c-.356-.097-.81-.097-.81-.097h-6.898V8.287h.745a2.22 2.22 0 001.846.966 2.22 2.22 0 001.846-.965h.745v3.218l1.296-.643V7h-2.818l-.162.354c-.097.258-.324.45-.583.547a1.003 1.003 0 01-1.23-.515L16.712 7h-2.818v3.315h-.81c-.486 0-.972.194-1.328.515L8 14.242V22h11.401c.388 0 .777-.16 1.069-.418.13-.13.226-.194.356-.419a2.34 2.34 0 00.356-1.223v-.129c.356-.064.68-.225.94-.45l.064-.065c.357-.354.55-.805.55-1.32v-.772l.066-.065c.356-.354.55-.804.55-1.32v-.675c.033-.032.033-.032.065-.032s.032-.033.065-.033c.324-.321.518-.74.518-1.223a1.953 1.953 0 00-1.134-1.61zm-.356 1.899a.484.484 0 01-.291.129h-5.377v1.287h5.182v.258a.67.67 0 01-.162.418.685.685 0 01-.42.161h-4.568v1.288h4.535v.257c0 .161-.065.29-.162.419a.685.685 0 01-.421.16h-3.984v1.288h3.045v.258a.58.58 0 01-.583.58H9.296v-5.827l3.336-3.058a.777.777 0 01.453-.161h.81v1.835h8.324c.226 0 .42.193.42.418 0 .097-.064.193-.129.29z" fill="#0774CA"/></g></svg>