<svg xmlns="http://www.w3.org/2000/svg" width="32" height="32"><g fill="none" fill-rule="evenodd"><circle fill="#E4EEF3" cx="16" cy="16" r="16"/><path d="M23.443 18.692c-.197-.33-.525-.659-.525-.659l-.984-.923-5.54-5.176-2.197.297-1.312 1.45a.454.454 0 01-.623.033.46.46 0 01-.032-.626l3.278-3.56A.665.665 0 0116 9.33c.459.033.885.165 1.311.33 1.28.56 3.607 1.45 3.705 1.483l.132.033h1.54v5.868L24 17.44l-.033-7.583h-2.623c-.492-.198-2.459-.956-3.54-1.417a4.996 4.996 0 00-1.706-.429 1.872 1.872 0 00-1.573.594L13.41 9.89H8v7.978l6.066 5.637c.36.33.82.495 1.278.495h.066c.492-.033.983-.23 1.311-.626l.23-.231c.295.198.656.297 1.016.297h.066c.492-.033.983-.231 1.311-.627l.525-.56h.065c.492-.033.984-.231 1.312-.627l.459-.494h.131c.46-.033.885-.23 1.213-.56.59-.495.689-1.253.394-1.88zm-1.246 1.022c-.066.1-.197.132-.295.132-.099 0-.23-.033-.295-.099l-4.033-3.725-.885.956 3.836 3.593-.197.198c-.066.132-.23.198-.36.198a.541.541 0 01-.427-.165l-3.41-3.165-.885.956 3.377 3.132-.197.231a.511.511 0 01-.393.198.541.541 0 01-.426-.165l-2.951-2.77-.918.99L16 22.319l-.197.197c-.23.231-.59.264-.82.033l-5.672-5.274v-6.066h2.853l-.885.989c-.656.725-.623 1.813.098 2.472.328.33.787.495 1.246.462.459-.033.885-.23 1.213-.56l1.016-1.088 1.115-.165 6.197 5.769a.46.46 0 01.033.626z" fill="#0774CA"/></g></svg>