<svg xmlns="http://www.w3.org/2000/svg" width="21" height="21"><g fill-rule="evenodd"><path d="M10.357.328C7.544.328 7.19.34 6.087.39 4.984.44 4.23.611 3.573.863c-.681.26-1.259.61-1.835 1.176A4.987 4.987 0 00.544 3.845C.288 4.494.112 5.235.062 6.32.012 7.407 0 7.754 0 10.523s.012 3.116.062 4.204c.05 1.085.226 1.826.482 2.474.264.67.618 1.24 1.194 1.806a5.086 5.086 0 001.835 1.176c.658.252 1.411.424 2.514.474 1.104.05 1.457.061 4.27.061 2.812 0 3.165-.012 4.27-.061 1.102-.05 1.855-.222 2.514-.474a5.086 5.086 0 001.834-1.176 4.987 4.987 0 001.195-1.806c.256-.648.43-1.39.481-2.474.05-1.088.062-1.435.062-4.204 0-2.769-.011-3.116-.062-4.203-.05-1.085-.225-1.826-.481-2.475a4.987 4.987 0 00-1.195-1.806A5.086 5.086 0 0017.141.863C16.482.611 15.729.44 14.627.39c-1.105-.05-1.458-.06-4.27-.06m0 1.836c2.765 0 3.093.01 4.185.06 1.01.045 1.558.211 1.923.35.483.186.828.406 1.19.763.363.357.588.697.775 1.172.142.36.311.9.357 1.893.05 1.076.06 1.398.06 4.12 0 2.722-.01 3.045-.06 4.12-.046.994-.215 1.534-.357 1.893a3.152 3.152 0 01-.774 1.172 3.211 3.211 0 01-1.191.763c-.365.14-.914.305-1.923.35-1.092.05-1.42.06-4.185.06-2.766 0-3.093-.01-4.185-.06-1.01-.045-1.559-.21-1.923-.35a3.211 3.211 0 01-1.191-.763 3.156 3.156 0 01-.775-1.172c-.142-.36-.31-.9-.357-1.893-.05-1.075-.06-1.398-.06-4.12 0-2.722.01-3.044.06-4.12.046-.994.215-1.533.357-1.893a3.16 3.16 0 01.775-1.172 3.215 3.215 0 011.19-.763c.365-.139.914-.305 1.924-.35 1.092-.05 1.42-.06 4.185-.06"/><path d="M10.357 13.921c-1.907 0-3.453-1.521-3.453-3.398 0-1.877 1.546-3.398 3.453-3.398 1.906 0 3.452 1.521 3.452 3.398 0 1.877-1.546 3.398-3.452 3.398m0-8.633c-2.938 0-5.319 2.344-5.319 5.235 0 2.891 2.381 5.235 5.319 5.235 2.937 0 5.318-2.344 5.318-5.235 0-2.891-2.38-5.235-5.318-5.235m6.771-.207c0 .676-.556 1.223-1.243 1.223a1.233 1.233 0 01-1.243-1.223c0-.676.557-1.223 1.243-1.223.687 0 1.243.547 1.243 1.223"/></g></svg>