<svg xmlns="http://www.w3.org/2000/svg" width="19" height="17"><g fill="none" fill-rule="evenodd"><path d="M-1-1h20v20H-1z"/><path d="M10.087 1.767l.074 1.172c-1.506.087-3.345.148-5.53.186-.037.382-.062.765-.086 1.16a8.732 8.732 0 011.641-.148c.149 0 .309 0 .457.012.062-.21.124-.42.173-.642l1.222.284c-.05.198-.111.395-.16.593.42.123.802.308 1.172.555.914.617 1.383 1.457 1.383 2.53 0 1.136-.395 2-1.185 2.617-.729.556-1.827.938-3.308 1.136l-.445-1.111c1.198-.148 2.086-.42 2.679-.802.642-.445.975-1.05.975-1.84 0-.728-.346-1.283-1.037-1.678a3.089 3.089 0 00-.592-.26c-.37 1.05-.815 1.95-1.309 2.716-1.11 1.63-2.469 2.456-4.086 2.456-.63 0-1.135-.21-1.518-.604-.395-.408-.58-.95-.58-1.617 0-1.16.58-2.173 1.753-3.025a5.845 5.845 0 011.469-.802c.012-.506.049-1.012.098-1.506-.987 0-2.024.013-3.11.013L.224 1.977c1.16 0 2.247-.013 3.26-.013.06-.494.147-.987.246-1.481l1.26.272c-.087.395-.161.79-.21 1.185 2.147-.037 3.925-.1 5.307-.173zM6.273 5.322h-.087a7.18 7.18 0 00-1.666.185c0 .95.05 1.839.173 2.654.136-.173.271-.358.42-.556.444-.666.839-1.42 1.16-2.283zm-3.037.666c-.197.099-.382.21-.555.333-.926.642-1.383 1.358-1.383 2.16 0 .692.272 1.05.827 1.05a2.96 2.96 0 001.445-.395 17.585 17.585 0 01-.334-3.148zM12.642 7h1.768l3.656 9.491h-1.781l-.891-2.512h-3.789l-.89 2.512H9L12.642 7zm-.585 5.716h2.898l-1.422-4.081h-.04l-1.436 4.081z" fill="#5C6570"/></g></svg>