<svg xmlns="http://www.w3.org/2000/svg" width="32" height="32"><g fill="none" fill-rule="evenodd"><circle fill="#E4EEF3" cx="16" cy="16" r="16"/><path d="M22.667 14v2H12v-4.667c0-1.1.9-2 2-2h4c1.1 0 2 .9 2 2v4l1.333-.666v-3.334C21.333 9.5 19.833 8 18 8h-4a3.343 3.343 0 00-3.333 3.333V16H9.333v-2H8v4.667c0 .866.567 1.6 1.333 1.866V24h1.334v-3.333h10.666V24h1.334v-3.467c.766-.266 1.333-1 1.333-1.866V14h-1.333zm0 4.667c0 .366-.3.666-.667.666H10a.669.669 0 01-.667-.666v-1.334h13.334v1.334z" fill="#0774CA"/></g></svg>