<svg xmlns="http://www.w3.org/2000/svg" width="21" height="18"><path d="M6.597 18c7.924 0 12.26-6.927 12.26-12.924 0-.195 0-.39-.008-.585A9.059 9.059 0 0021 2.135a8.387 8.387 0 01-2.479.717c.89-.558 1.571-1.452 1.9-2.515a8.309 8.309 0 01-2.74 1.098C16.89.549 15.773 0 14.538 0c-2.378 0-4.311 2.037-4.311 4.544 0 .355.042.7.11 1.037C6.756 5.395 3.58 3.579 1.453.833a4.733 4.733 0 00-.58 2.285c0 1.577.765 2.968 1.916 3.783a4.19 4.19 0 01-1.95-.567v.062c0 2.197 1.488 4.039 3.454 4.455a4 4 0 01-1.134.16 4.03 4.03 0 01-.807-.08c.546 1.807 2.143 3.118 4.025 3.154-1.479 1.222-3.336 1.948-5.353 1.948a7.75 7.75 0 01-1.025-.062A11.804 11.804 0 006.597 18" fill="#1DA1F2" fill-rule="evenodd"/></svg>