<svg xmlns="http://www.w3.org/2000/svg" width="24" height="24"><g fill="none" fill-rule="evenodd"><ellipse stroke="#E4EEF3" fill="#EFF5F8" cx="12" cy="11.897" rx="11.5" ry="11.397"/><path d="M20.439 20.356A12.014 12.014 0 0112 23.795a12.014 12.014 0 01-8.474-3.474l.478-3.33.362-.198c4.259-2.27 10.969-2.27 15.228 0l.361.199.484 3.364zM8.344 10.419l-.241-2.43a3.627 3.627 0 01.924-2.828 3.849 3.849 0 012.772-1.195c1.085 0 2.09.438 2.772 1.195.683.757 1.045 1.792.925 2.828l-.242 2.43c-.2 1.793-1.647 3.107-3.455 3.107s-3.295-1.354-3.455-3.107z" fill="#1673e6"/></g></svg>